<?xml version="1.0" standalone="no"?>
<!DOCTYPE svg PUBLIC "-//W3C//DTD SVG 20010904//EN"
 "http://www.w3.org/TR/2001/REC-SVG-20010904/DTD/svg10.dtd">
<svg version="1.0" xmlns="http://www.w3.org/2000/svg"
 width="1775.000000pt" height="1020.000000pt" viewBox="0 0 1775.000000 1020.000000"
 preserveAspectRatio="xMidYMid meet">

<g transform="translate(0.000000,1020.000000) scale(0.100000,-0.100000)"
fill="#000000" stroke="none">
<path d="M4950 9657 c-3 -3 -71 -7 -152 -11 -80 -4 -157 -9 -170 -11 -13 -2
-57 -6 -98 -10 -116 -10 -291 -33 -296 -38 -2 -1 106 -132 239 -290 231 -274
243 -287 272 -282 17 2 80 13 140 24 107 19 139 23 255 37 30 3 66 8 80 10 44
7 320 18 445 18 131 0 425 -12 465 -18 14 -3 61 -7 104 -11 43 -4 86 -8 95
-10 9 -1 43 -6 76 -9 33 -4 67 -9 75 -11 8 -2 37 -6 64 -10 83 -10 274 -45
419 -75 234 -50 206 -33 289 -173 40 -67 75 -124 79 -127 3 -3 9 -12 12 -20 7
-16 3 58 -13 270 -5 69 -12 172 -16 230 -4 58 -8 112 -10 120 -1 8 -3 38 -3
66 l-1 52 -82 22 c-204 55 -494 118 -713 154 -148 25 -172 28 -270 41 -27 4
-59 8 -71 10 -11 2 -52 6 -90 10 -38 4 -79 8 -91 10 -12 2 -68 6 -125 10 -57
4 -114 9 -128 12 -31 6 -774 15 -780 10z"/>
<path d="M3945 9529 c-471 -128 -926 -335 -1275 -581 -58 -40 -116 -82 -129
-93 -133 -110 -182 -154 -281 -254 -188 -189 -338 -392 -454 -612 l-56 -106
202 -108 c112 -60 226 -120 253 -135 28 -15 100 -53 160 -85 61 -32 133 -71
161 -86 28 -16 54 -29 58 -29 4 0 16 21 27 47 55 128 235 390 370 538 273 298
563 518 919 696 140 69 382 169 411 169 11 0 43 -13 72 -29 97 -53 382 -195
386 -192 2 1 7 -2 10 -7 3 -5 21 -17 40 -27 37 -19 32 -13 -254 310 -77 87
-178 201 -225 254 -185 211 -312 351 -318 350 -4 -1 -38 -10 -77 -20z"/>
<path d="M7497 9313 c-10 -19 -4 -473 7 -481 6 -5 61 -23 121 -41 293 -87 749
-249 1045 -371 191 -79 399 -170 454 -197 38 -20 150 -44 480 -104 237 -43
431 -77 432 -76 4 4 -161 124 -302 220 -485 329 -1085 640 -1659 860 -107 41
-559 197 -571 197 -1 0 -5 -3 -7 -7z"/>
<path d="M1642 7586 c-89 -283 -125 -525 -125 -851 0 -547 124 -1109 395
-1791 l60 -150 414 0 c290 0 413 3 410 10 -195 471 -303 887 -345 1341 -10
101 -7 545 4 620 3 22 10 76 16 120 5 44 14 104 20 133 l10 52 232 0 231 0
-134 69 c-74 37 -363 183 -641 323 l-506 256 -41 -132z"/>
<path d="M150 3971 l0 -490 150 0 150 0 0 170 0 169 333 1 c182 1 335 1 340 0
4 0 7 49 7 109 l0 110 -340 0 -340 0 0 95 0 95 355 0 355 0 0 115 0 115 -505
0 -505 0 0 -489z"/>
<path d="M1260 3970 l0 -490 145 0 145 0 0 490 0 490 -145 0 -145 0 0 -490z"/>
<path d="M1716 4428 c25 -31 51 -61 255 -287 112 -125 137 -155 141 -162 3 -6
-56 -70 -326 -353 -21 -23 -61 -65 -89 -93 l-51 -53 196 0 197 0 138 157 c76
87 148 169 161 183 l23 25 31 -35 c17 -19 91 -101 165 -182 l134 -148 191 0
192 0 -35 37 c-18 21 -64 69 -101 108 -36 38 -80 86 -98 105 -28 31 -83 89
-209 223 -21 22 -32 41 -26 45 6 4 80 84 165 177 85 94 157 172 160 175 3 3
27 29 55 58 l49 52 -184 0 -185 0 -92 -102 c-50 -57 -101 -114 -113 -128 -12
-14 -39 -44 -61 -67 l-39 -42 -43 47 c-23 26 -44 49 -47 52 -3 3 -39 43 -80
90 -41 46 -88 99 -104 117 l-29 33 -184 0 -185 0 28 -32z"/>
<path d="M3130 3127 c14 -12 90 -76 170 -142 393 -323 879 -652 1330 -902 182
-101 260 -143 265 -143 9 0 340 283 340 291 0 5 -81 57 -180 117 -244 147
-751 476 -775 503 -3 3 -41 30 -85 60 -44 30 -87 59 -95 66 -8 7 -64 48 -125
92 l-110 81 -380 0 -380 0 25 -23z"/>
<path d="M12352 3053 c-91 -181 -330 -552 -357 -554 -8 -1 -18 -2 -22 -3 -15
-4 -228 -20 -235 -18 -5 1 -8 -1 -8 -6 0 -4 35 -20 78 -36 42 -16 132 -51 199
-77 l122 -47 54 72 c85 114 199 283 267 396 75 126 190 342 190 358 0 9 -36
12 -120 12 l-119 0 -49 -97z"/>
<path d="M5371 2082 l-294 -237 109 -52 c448 -215 1023 -441 1529 -601 240
-76 650 -192 679 -192 12 0 111 248 102 258 -2 2 -71 23 -153 47 -310 91 -682
228 -1028 379 -143 63 -718 347 -750 372 -22 16 -22 16 77 197 20 37 33 67 30
66 -4 0 -139 -107 -301 -237z"/>
<path d="M11769 2157 c-325 -311 -776 -605 -1194 -780 l-60 -25 -55 61 c-30
34 -76 85 -102 112 l-48 50 96 -220 c53 -121 98 -228 101 -237 3 -10 10 -18
15 -18 20 0 298 125 458 206 435 219 733 447 988 753 34 41 62 77 62 81 0 7
-165 90 -178 90 -4 0 -41 -33 -83 -73z"/>
<path d="M7662 1407 c-71 -371 -83 -439 -80 -442 5 -5 251 -39 363 -50 33 -3
71 -8 85 -10 14 -2 70 -7 125 -11 55 -3 109 -8 119 -10 33 -6 403 -18 561 -18
160 0 494 11 535 18 14 2 63 7 110 11 47 3 99 8 115 10 170 21 186 24 340 51
157 27 382 77 392 87 6 6 -62 183 -77 200 -4 5 -54 -5 -111 -21 -213 -61 -461
-112 -621 -127 -34 -4 -69 -8 -75 -10 -80 -26 -835 -26 -994 0 -13 2 -51 6
-84 10 -33 3 -76 8 -95 11 -41 6 -151 23 -195 30 -102 16 -325 64 -325 69 0 2
-9 66 -21 142 -11 76 -23 158 -26 183 -3 25 -6 46 -7 47 -1 1 -16 -75 -34
-170z"/>
</g>
</svg>
