<?xml version="1.0" standalone="no"?>
<!DOCTYPE svg PUBLIC "-//W3C//DTD SVG 20010904//EN"
 "http://www.w3.org/TR/2001/REC-SVG-20010904/DTD/svg10.dtd">
<svg version="1.0" xmlns="http://www.w3.org/2000/svg"
 width="341.000000pt" height="131.000000pt" viewBox="0 0 341.000000 131.000000"
 preserveAspectRatio="xMidYMid meet">

<g transform="translate(0.000000,131.000000) scale(0.100000,-0.100000)"
fill="#000000" stroke="none">
<path d="M0 655 l0 -655 1705 0 1705 0 0 655 0 655 -1705 0 -1705 0 0 -655z
m872 486 c-11 -6 -10 -10 5 -15 17 -7 17 -8 0 -20 -10 -8 -15 -20 -11 -30 6
-16 -6 -30 -123 -133 -82 -71 -117 -139 -118 -223 0 -102 43 -172 157 -252 32
-22 55 -45 52 -50 -4 -6 1 -8 13 -4 14 4 19 1 20 -14 1 -11 -2 -18 -8 -15 -11
8 -11 7 0 -32 5 -18 6 -35 1 -38 -12 -8 -185 52 -262 91 -205 103 -290 262
-219 409 46 95 182 206 336 273 103 45 191 75 157 53z m-560 -265 c6 4 6 -1
-1 -14 -6 -11 -16 -23 -23 -25 -10 -4 -10 -8 1 -15 11 -8 11 -11 0 -18 -10 -6
-14 -31 -14 -79 0 -38 -4 -79 -9 -90 -5 -14 -5 -16 2 -7 7 11 11 8 15 -10 9
-32 9 -60 0 -55 -12 7 -9 -197 2 -206 6 -6 5 -10 -3 -14 -9 -3 -6 -11 10 -25
l23 -20 -25 7 c-50 15 -133 69 -179 116 -89 91 -100 193 -31 294 44 64 209
187 218 163 2 -4 8 -5 14 -2z m-12 -496 c0 -5 -2 -10 -4 -10 -3 0 -8 5 -11 10
-3 6 -1 10 4 10 6 0 11 -4 11 -10z"/>
<path d="M280 860 c0 -5 5 -10 10 -10 6 0 10 5 10 10 0 6 -4 10 -10 10 -5 0
-10 -4 -10 -10z"/>
</g>
</svg>
